<?xml version="1.0" encoding="UTF-8"?><svg id="Layer_1" xmlns="http://www.w3.org/2000/svg" xmlns:xlink="http://www.w3.org/1999/xlink" viewBox="0 0 1310.32 1181.95"><defs><style>.cls-1,.cls-2{stroke-width:.53px;}.cls-1,.cls-2,.cls-3,.cls-4{fill:none;stroke:#243746;stroke-linejoin:round;}.cls-2,.cls-3,.cls-4{stroke-linecap:round;}.cls-5{opacity:.5;}.cls-6{fill:#caedf9;}.cls-7{fill:#6fb2bc;}.cls-8{fill:#0b5f6a;}.cls-9{fill:#ffecf0;}.cls-10{opacity:.3;}.cls-11{fill:#459a9c;}.cls-3{stroke-width:.4px;}.cls-12{clip-path:url(#clippath);}.cls-13{fill:#243746;}.cls-4{stroke-width:.79px;}.cls-14{fill:#007079;}.cls-15{opacity:.25;}</style><clipPath id="clippath"><circle class="cls-6" cx="673.88" cy="528" r="528"/></clipPath></defs><circle class="cls-6" cx="673.88" cy="528" r="528"/><g class="cls-12"><g id="plattform"><polyline class="cls-4" points="631.28 251.97 594.56 583.31 715.96 583.31 679.24 251.97"/><line class="cls-2" x1="640.03" y1="173.11" x2="670.5" y2="173.11"/><line class="cls-2" x1="630.11" y1="261.5" x2="680.41" y2="261.5"/><line class="cls-4" x1="623.82" y1="319.33" x2="686.7" y2="319.33"/><line class="cls-4" x1="694.17" y1="392.58" x2="616.35" y2="392.58"/><line class="cls-4" x1="606.68" y1="473.95" x2="703.84" y2="473.95"/><polyline class="cls-3" points="680.29 261.5 623.82 319.33 694.17 392.58 606.68 473.95 715.96 583.31"/><path class="cls-4" d="m631.28,251.97l12.64-114.06c1.5-13.54,21.18-13.54,22.68,0l12.64,114.06"/><polyline class="cls-3" points="594.56 583.31 703.84 473.95 616.35 392.58 686.7 319.33 630.23 261.5"/><circle class="cls-13" cx="655.26" cy="138.44" r="10.67"/><path class="cls-2" d="m667.95,151.23c-3.15,3.43-7.67,5.57-12.69,5.57s-9.54-2.15-12.69-5.57"/><path class="cls-13" d="m679.24,247.81h-46.69c-2.93,0-5.3-2.37-5.3-5.3s2.37-5.3,5.3-5.3h46.69c2.93,0,5.3,2.37,5.3,5.3s-2.37,5.3-5.3,5.3Z"/><path class="cls-1" d="m873.75,559.43c-2.3,2.98-.17,7.31,3.6,7.31h40.03c1.58,0,3.04-.82,3.87-2.16l131.72-215.11c4.6-7.52-6.1-14.88-11.48-7.9l-167.74,217.86Z"/><polyline class="cls-1" points="919.92 566.74 900 525.31 945.41 525.31 931.87 483.88 970.91 483.88 963.74 442.45 996.4 442.45 995.61 401.02 1021.9 401.02 1024.06 364.03 1044.37 364.5"/><rect class="cls-14" x="755.76" y="745.51" width="88" height="161.52"/><path class="cls-13" d="m843.75,814.86v-69.35h-88v7.34c34.13,13.46,64.22,34.89,88,62.02Z"/><rect class="cls-14" x="466.67" y="745.51" width="88" height="161.52"/><path class="cls-13" d="m554.67,831.39v-85.88h-88v6.56c35.85,18.29,66.2,45.75,88,79.32Z"/><rect class="cls-7" x="410.68" y="628.72" width="489.16" height="116.79"/><polygon class="cls-13" points="899.84 699.44 449.55 628.72 899.84 628.72 899.84 699.44"/><polygon class="cls-7" points="889.71 565.07 889.71 528.53 889.71 451.15 810.85 451.15 810.85 528.53 762.25 528.53 762.25 565.07 687.09 565.07 619.9 565.07 619.9 504.3 619.9 416.35 463.7 416.35 463.7 480.21 386.52 480.21 386.52 628.72 924 628.72 924 565.07 889.71 565.07"/><rect class="cls-9" x="758.92" y="641.93" width="7.07" height="7.07" rx=".15" ry=".15"/><rect class="cls-9" x="775.42" y="641.93" width="7.07" height="7.07" rx=".15" ry=".15"/><rect class="cls-9" x="824.92" y="641.93" width="7.07" height="7.07" rx=".15" ry=".15"/><rect class="cls-9" x="758.92" y="660.03" width="7.07" height="7.07" rx=".15" ry=".15"/><rect class="cls-9" x="775.42" y="660.03" width="7.07" height="7.07" rx=".15" ry=".15"/><rect class="cls-9" x="808.42" y="660.03" width="7.07" height="7.07" rx=".15" ry=".15"/><rect class="cls-9" x="824.92" y="660.03" width="7.07" height="7.07" rx=".15" ry=".15"/><rect class="cls-9" x="841.42" y="660.03" width="7.07" height="7.07" rx=".15" ry=".15"/><rect class="cls-9" x="857.93" y="660.03" width="7.07" height="7.07" rx=".15" ry=".15"/><rect class="cls-9" x="874.43" y="660.03" width="7.07" height="7.07" rx=".15" ry=".15"/><rect class="cls-9" x="485.76" y="473.29" width="7.07" height="7.07" rx=".15" ry=".15"/><rect class="cls-9" x="502.27" y="473.29" width="7.07" height="7.07" rx=".15" ry=".15"/><rect class="cls-9" x="535.27" y="473.29" width="7.07" height="7.07" rx=".15" ry=".15"/><rect class="cls-9" x="420.62" y="585.65" width="7.07" height="7.07" rx=".15" ry=".15"/><rect class="cls-9" x="470.12" y="585.65" width="7.07" height="7.07" rx=".15" ry=".15"/><rect class="cls-9" x="404.12" y="603.75" width="7.07" height="7.07" rx=".15" ry=".15"/><rect class="cls-9" x="420.62" y="603.75" width="7.07" height="7.07" rx=".15" ry=".15"/><rect class="cls-9" x="453.62" y="603.75" width="7.07" height="7.07" rx=".15" ry=".15"/><rect class="cls-9" x="486.63" y="603.75" width="7.07" height="7.07" rx=".15" ry=".15"/><rect class="cls-9" x="519.63" y="603.75" width="7.07" height="7.07" rx=".15" ry=".15"/><rect class="cls-9" x="536.13" y="603.75" width="7.07" height="7.07" rx=".15" ry=".15"/><rect class="cls-9" x="569.13" y="603.75" width="7.07" height="7.07" rx=".15" ry=".15"/><rect class="cls-9" x="602.14" y="603.75" width="7.07" height="7.07" rx=".15" ry=".15"/><rect class="cls-9" x="800.32" y="603.75" width="7.07" height="7.07" rx=".15" ry=".15"/><rect class="cls-9" x="849.83" y="603.75" width="7.07" height="7.07" rx=".15" ry=".15"/><rect class="cls-9" x="882.83" y="603.75" width="7.07" height="7.07" rx=".15" ry=".15"/><rect class="cls-9" x="899.33" y="603.75" width="7.07" height="7.07" rx=".15" ry=".15"/></g><g id="hav"><path class="cls-11" d="m1310.32,874.15c-121.37,0-121.37-32.05-242.74-32.05s-121.37,32.05-242.74,32.05-121.37-32.05-242.74-32.05-121.37,32.05-242.74,32.05-121.37-32.05-242.74-32.05v332.94h1213.7v-300.89Z"/><path class="cls-8" d="m1213.7,881.05c-121.37,0-121.37-32.05-242.74-32.05s-121.37,32.05-242.74,32.05-121.37-32.05-242.74-32.05-121.37,32.05-242.74,32.05-121.37-32.05-242.74-32.05v332.94h1213.7v-300.89Z"/><g class="cls-15"><path class="cls-14" d="m975.24,914.85c-44.2-16.05-93.33-13.28-135.45,6.99-4.58,2.11-11.22,5.52-15.82,7.78-16.37,7.61-34.31,12.06-52.33,12.74-23.77.85-48.05-3.81-69.11-14.84,21.93,8.07,45.59,11.07,68.74,9.18,17.25-1.51,34.05-6.09,49.67-13.49,4.69-2.34,11.09-5.79,15.8-7.94,43-20.59,95.84-22.33,138.5-.42h0Z"/></g><g class="cls-10"><path class="cls-14" d="m388.28,914.49c48.41-21.99,107.49-37.8,157.78-12.99-55.17-14.71-104.25.58-157.78,12.99h0Z"/></g><g class="cls-5"><path class="cls-14" d="m484.37,959.94c53.08-22.56,97.41-25.66,152.79-8.92,0,0,21.18,6.77,21.18,6.77,27.73,9.25,56.62,15.12,85.79,17.12,29.11,1.58,59.23.23,86.32-11.73-25.98,14.85-57.1,17.92-86.57,17.37-37.11-.73-73.9-10.52-108.76-22.77-55.81-17.2-95.43-15.04-150.75,2.15h0Z"/></g></g></g></svg>